<mxfile host="app.diagrams.net" modified="2021-07-27T08:25:43.028Z" agent="5.0 (Macintosh; Intel Mac OS X 10_15_7) AppleWebKit/537.36 (KHTML, like Gecko) Chrome/86.0.4240.193 Safari/537.36" etag="1iqfdxw5HsqlGXN-BNYp" version="14.9.2" type="github">
  <diagram id="sqrWlP-hndjEy4cqaaY2" name="Page-1">
    <mxGraphModel dx="946" dy="536" grid="1" gridSize="10" guides="1" tooltips="1" connect="1" arrows="1" fold="1" page="1" pageScale="1" pageWidth="827" pageHeight="1169" math="0" shadow="0">
      <root>
        <mxCell id="0" />
        <mxCell id="1" parent="0" />
        <mxCell id="s4EFjNfNSJcxo-a09yfP-1" value="" style="shape=table;html=1;whiteSpace=wrap;startSize=0;container=1;collapsible=0;childLayout=tableLayout;" vertex="1" parent="1">
          <mxGeometry x="150" y="260" width="140" height="520" as="geometry" />
        </mxCell>
        <mxCell id="s4EFjNfNSJcxo-a09yfP-2" value="" style="shape=partialRectangle;html=1;whiteSpace=wrap;collapsible=0;dropTarget=0;pointerEvents=0;fillColor=none;top=0;left=0;bottom=0;right=0;points=[[0,0.5],[1,0.5]];portConstraint=eastwest;" vertex="1" parent="s4EFjNfNSJcxo-a09yfP-1">
          <mxGeometry width="140" height="40" as="geometry" />
        </mxCell>
        <mxCell id="s4EFjNfNSJcxo-a09yfP-3" value="偏移量" style="shape=partialRectangle;html=1;whiteSpace=wrap;connectable=0;fillColor=none;top=0;left=0;bottom=0;right=0;overflow=hidden;" vertex="1" parent="s4EFjNfNSJcxo-a09yfP-2">
          <mxGeometry width="60" height="40" as="geometry" />
        </mxCell>
        <mxCell id="s4EFjNfNSJcxo-a09yfP-4" value="指令" style="shape=partialRectangle;html=1;whiteSpace=wrap;connectable=0;fillColor=none;top=0;left=0;bottom=0;right=0;overflow=hidden;" vertex="1" parent="s4EFjNfNSJcxo-a09yfP-2">
          <mxGeometry x="60" width="80" height="40" as="geometry" />
        </mxCell>
        <mxCell id="s4EFjNfNSJcxo-a09yfP-6" value="" style="shape=partialRectangle;html=1;whiteSpace=wrap;collapsible=0;dropTarget=0;pointerEvents=0;fillColor=none;top=0;left=0;bottom=0;right=0;points=[[0,0.5],[1,0.5]];portConstraint=eastwest;" vertex="1" parent="s4EFjNfNSJcxo-a09yfP-1">
          <mxGeometry y="40" width="140" height="40" as="geometry" />
        </mxCell>
        <mxCell id="s4EFjNfNSJcxo-a09yfP-7" value="0" style="shape=partialRectangle;html=1;whiteSpace=wrap;connectable=0;fillColor=none;top=0;left=0;bottom=0;right=0;overflow=hidden;" vertex="1" parent="s4EFjNfNSJcxo-a09yfP-6">
          <mxGeometry width="60" height="40" as="geometry" />
        </mxCell>
        <mxCell id="s4EFjNfNSJcxo-a09yfP-8" value="bipush 100" style="shape=partialRectangle;html=1;whiteSpace=wrap;connectable=0;fillColor=none;top=0;left=0;bottom=0;right=0;overflow=hidden;" vertex="1" parent="s4EFjNfNSJcxo-a09yfP-6">
          <mxGeometry x="60" width="80" height="40" as="geometry" />
        </mxCell>
        <mxCell id="s4EFjNfNSJcxo-a09yfP-10" value="" style="shape=partialRectangle;html=1;whiteSpace=wrap;collapsible=0;dropTarget=0;pointerEvents=0;fillColor=none;top=0;left=0;bottom=0;right=0;points=[[0,0.5],[1,0.5]];portConstraint=eastwest;" vertex="1" parent="s4EFjNfNSJcxo-a09yfP-1">
          <mxGeometry y="80" width="140" height="40" as="geometry" />
        </mxCell>
        <mxCell id="s4EFjNfNSJcxo-a09yfP-11" value="2" style="shape=partialRectangle;html=1;whiteSpace=wrap;connectable=0;fillColor=none;top=0;left=0;bottom=0;right=0;overflow=hidden;" vertex="1" parent="s4EFjNfNSJcxo-a09yfP-10">
          <mxGeometry width="60" height="40" as="geometry" />
        </mxCell>
        <mxCell id="s4EFjNfNSJcxo-a09yfP-12" value="&lt;div&gt;istore_1&lt;br&gt;&lt;/div&gt;" style="shape=partialRectangle;html=1;whiteSpace=wrap;connectable=0;fillColor=none;top=0;left=0;bottom=0;right=0;overflow=hidden;" vertex="1" parent="s4EFjNfNSJcxo-a09yfP-10">
          <mxGeometry x="60" width="80" height="40" as="geometry" />
        </mxCell>
        <mxCell id="s4EFjNfNSJcxo-a09yfP-14" style="shape=partialRectangle;html=1;whiteSpace=wrap;collapsible=0;dropTarget=0;pointerEvents=0;fillColor=none;top=0;left=0;bottom=0;right=0;points=[[0,0.5],[1,0.5]];portConstraint=eastwest;" vertex="1" parent="s4EFjNfNSJcxo-a09yfP-1">
          <mxGeometry y="120" width="140" height="40" as="geometry" />
        </mxCell>
        <mxCell id="s4EFjNfNSJcxo-a09yfP-15" value="&lt;span&gt;3&lt;/span&gt;" style="shape=partialRectangle;html=1;whiteSpace=wrap;connectable=0;fillColor=none;top=0;left=0;bottom=0;right=0;overflow=hidden;" vertex="1" parent="s4EFjNfNSJcxo-a09yfP-14">
          <mxGeometry width="60" height="40" as="geometry" />
        </mxCell>
        <mxCell id="s4EFjNfNSJcxo-a09yfP-16" value="&amp;nbsp;sipush 200" style="shape=partialRectangle;html=1;whiteSpace=wrap;connectable=0;fillColor=none;top=0;left=0;bottom=0;right=0;overflow=hidden;" vertex="1" parent="s4EFjNfNSJcxo-a09yfP-14">
          <mxGeometry x="60" width="80" height="40" as="geometry" />
        </mxCell>
        <mxCell id="s4EFjNfNSJcxo-a09yfP-18" style="shape=partialRectangle;html=1;whiteSpace=wrap;collapsible=0;dropTarget=0;pointerEvents=0;fillColor=none;top=0;left=0;bottom=0;right=0;points=[[0,0.5],[1,0.5]];portConstraint=eastwest;" vertex="1" parent="s4EFjNfNSJcxo-a09yfP-1">
          <mxGeometry y="160" width="140" height="40" as="geometry" />
        </mxCell>
        <mxCell id="s4EFjNfNSJcxo-a09yfP-19" value="&lt;meta charset=&quot;utf-8&quot;&gt;&lt;span style=&quot;color: rgb(0, 0, 0); font-family: helvetica; font-size: 12px; font-style: normal; font-weight: 400; letter-spacing: normal; text-align: center; text-indent: 0px; text-transform: none; word-spacing: 0px; background-color: rgb(248, 249, 250); display: inline; float: none;&quot;&gt;6&lt;/span&gt;" style="shape=partialRectangle;html=1;whiteSpace=wrap;connectable=0;fillColor=none;top=0;left=0;bottom=0;right=0;overflow=hidden;" vertex="1" parent="s4EFjNfNSJcxo-a09yfP-18">
          <mxGeometry width="60" height="40" as="geometry" />
        </mxCell>
        <mxCell id="s4EFjNfNSJcxo-a09yfP-20" value="&amp;nbsp;istore_2" style="shape=partialRectangle;html=1;whiteSpace=wrap;connectable=0;fillColor=none;top=0;left=0;bottom=0;right=0;overflow=hidden;" vertex="1" parent="s4EFjNfNSJcxo-a09yfP-18">
          <mxGeometry x="60" width="80" height="40" as="geometry" />
        </mxCell>
        <mxCell id="s4EFjNfNSJcxo-a09yfP-22" style="shape=partialRectangle;html=1;whiteSpace=wrap;collapsible=0;dropTarget=0;pointerEvents=0;fillColor=none;top=0;left=0;bottom=0;right=0;points=[[0,0.5],[1,0.5]];portConstraint=eastwest;" vertex="1" parent="s4EFjNfNSJcxo-a09yfP-1">
          <mxGeometry y="200" width="140" height="40" as="geometry" />
        </mxCell>
        <mxCell id="s4EFjNfNSJcxo-a09yfP-23" value="&lt;span&gt;7&lt;/span&gt;" style="shape=partialRectangle;html=1;whiteSpace=wrap;connectable=0;fillColor=none;top=0;left=0;bottom=0;right=0;overflow=hidden;" vertex="1" parent="s4EFjNfNSJcxo-a09yfP-22">
          <mxGeometry width="60" height="40" as="geometry" />
        </mxCell>
        <mxCell id="s4EFjNfNSJcxo-a09yfP-24" value="&amp;nbsp;sipush 300" style="shape=partialRectangle;html=1;whiteSpace=wrap;connectable=0;fillColor=none;top=0;left=0;bottom=0;right=0;overflow=hidden;" vertex="1" parent="s4EFjNfNSJcxo-a09yfP-22">
          <mxGeometry x="60" width="80" height="40" as="geometry" />
        </mxCell>
        <mxCell id="s4EFjNfNSJcxo-a09yfP-26" style="shape=partialRectangle;html=1;whiteSpace=wrap;collapsible=0;dropTarget=0;pointerEvents=0;fillColor=none;top=0;left=0;bottom=0;right=0;points=[[0,0.5],[1,0.5]];portConstraint=eastwest;" vertex="1" parent="s4EFjNfNSJcxo-a09yfP-1">
          <mxGeometry y="240" width="140" height="40" as="geometry" />
        </mxCell>
        <mxCell id="s4EFjNfNSJcxo-a09yfP-27" value="&lt;span&gt;10&lt;/span&gt;" style="shape=partialRectangle;html=1;whiteSpace=wrap;connectable=0;fillColor=none;top=0;left=0;bottom=0;right=0;overflow=hidden;" vertex="1" parent="s4EFjNfNSJcxo-a09yfP-26">
          <mxGeometry width="60" height="40" as="geometry" />
        </mxCell>
        <mxCell id="s4EFjNfNSJcxo-a09yfP-28" value="&amp;nbsp;istore_3" style="shape=partialRectangle;html=1;whiteSpace=wrap;connectable=0;fillColor=none;top=0;left=0;bottom=0;right=0;overflow=hidden;" vertex="1" parent="s4EFjNfNSJcxo-a09yfP-26">
          <mxGeometry x="60" width="80" height="40" as="geometry" />
        </mxCell>
        <mxCell id="s4EFjNfNSJcxo-a09yfP-30" style="shape=partialRectangle;html=1;whiteSpace=wrap;collapsible=0;dropTarget=0;pointerEvents=0;fillColor=none;top=0;left=0;bottom=0;right=0;points=[[0,0.5],[1,0.5]];portConstraint=eastwest;" vertex="1" parent="s4EFjNfNSJcxo-a09yfP-1">
          <mxGeometry y="280" width="140" height="40" as="geometry" />
        </mxCell>
        <mxCell id="s4EFjNfNSJcxo-a09yfP-31" value="11" style="shape=partialRectangle;html=1;whiteSpace=wrap;connectable=0;fillColor=none;top=0;left=0;bottom=0;right=0;overflow=hidden;" vertex="1" parent="s4EFjNfNSJcxo-a09yfP-30">
          <mxGeometry width="60" height="40" as="geometry" />
        </mxCell>
        <mxCell id="s4EFjNfNSJcxo-a09yfP-32" value="&amp;nbsp;iload_1" style="shape=partialRectangle;html=1;whiteSpace=wrap;connectable=0;fillColor=none;top=0;left=0;bottom=0;right=0;overflow=hidden;" vertex="1" parent="s4EFjNfNSJcxo-a09yfP-30">
          <mxGeometry x="60" width="80" height="40" as="geometry" />
        </mxCell>
        <mxCell id="s4EFjNfNSJcxo-a09yfP-34" style="shape=partialRectangle;html=1;whiteSpace=wrap;collapsible=0;dropTarget=0;pointerEvents=0;fillColor=none;top=0;left=0;bottom=0;right=0;points=[[0,0.5],[1,0.5]];portConstraint=eastwest;" vertex="1" parent="s4EFjNfNSJcxo-a09yfP-1">
          <mxGeometry y="320" width="140" height="40" as="geometry" />
        </mxCell>
        <mxCell id="s4EFjNfNSJcxo-a09yfP-35" value="12" style="shape=partialRectangle;html=1;whiteSpace=wrap;connectable=0;fillColor=none;top=0;left=0;bottom=0;right=0;overflow=hidden;" vertex="1" parent="s4EFjNfNSJcxo-a09yfP-34">
          <mxGeometry width="60" height="40" as="geometry" />
        </mxCell>
        <mxCell id="s4EFjNfNSJcxo-a09yfP-36" value="iload_2" style="shape=partialRectangle;html=1;whiteSpace=wrap;connectable=0;fillColor=none;top=0;left=0;bottom=0;right=0;overflow=hidden;" vertex="1" parent="s4EFjNfNSJcxo-a09yfP-34">
          <mxGeometry x="60" width="80" height="40" as="geometry" />
        </mxCell>
        <mxCell id="s4EFjNfNSJcxo-a09yfP-38" style="shape=partialRectangle;html=1;whiteSpace=wrap;collapsible=0;dropTarget=0;pointerEvents=0;fillColor=none;top=0;left=0;bottom=0;right=0;points=[[0,0.5],[1,0.5]];portConstraint=eastwest;" vertex="1" parent="s4EFjNfNSJcxo-a09yfP-1">
          <mxGeometry y="360" width="140" height="40" as="geometry" />
        </mxCell>
        <mxCell id="s4EFjNfNSJcxo-a09yfP-39" value="13" style="shape=partialRectangle;html=1;whiteSpace=wrap;connectable=0;fillColor=none;top=0;left=0;bottom=0;right=0;overflow=hidden;" vertex="1" parent="s4EFjNfNSJcxo-a09yfP-38">
          <mxGeometry width="60" height="40" as="geometry" />
        </mxCell>
        <mxCell id="s4EFjNfNSJcxo-a09yfP-40" value="iadd" style="shape=partialRectangle;html=1;whiteSpace=wrap;connectable=0;fillColor=none;top=0;left=0;bottom=0;right=0;overflow=hidden;" vertex="1" parent="s4EFjNfNSJcxo-a09yfP-38">
          <mxGeometry x="60" width="80" height="40" as="geometry" />
        </mxCell>
        <mxCell id="s4EFjNfNSJcxo-a09yfP-42" style="shape=partialRectangle;html=1;whiteSpace=wrap;collapsible=0;dropTarget=0;pointerEvents=0;fillColor=none;top=0;left=0;bottom=0;right=0;points=[[0,0.5],[1,0.5]];portConstraint=eastwest;" vertex="1" parent="s4EFjNfNSJcxo-a09yfP-1">
          <mxGeometry y="400" width="140" height="40" as="geometry" />
        </mxCell>
        <mxCell id="s4EFjNfNSJcxo-a09yfP-43" value="&lt;span&gt;14&lt;/span&gt;" style="shape=partialRectangle;html=1;whiteSpace=wrap;connectable=0;fillColor=none;top=0;left=0;bottom=0;right=0;overflow=hidden;" vertex="1" parent="s4EFjNfNSJcxo-a09yfP-42">
          <mxGeometry width="60" height="40" as="geometry" />
        </mxCell>
        <mxCell id="s4EFjNfNSJcxo-a09yfP-44" value="&amp;nbsp;iload_3" style="shape=partialRectangle;html=1;whiteSpace=wrap;connectable=0;fillColor=none;top=0;left=0;bottom=0;right=0;overflow=hidden;" vertex="1" parent="s4EFjNfNSJcxo-a09yfP-42">
          <mxGeometry x="60" width="80" height="40" as="geometry" />
        </mxCell>
        <mxCell id="s4EFjNfNSJcxo-a09yfP-46" style="shape=partialRectangle;html=1;whiteSpace=wrap;collapsible=0;dropTarget=0;pointerEvents=0;fillColor=none;top=0;left=0;bottom=0;right=0;points=[[0,0.5],[1,0.5]];portConstraint=eastwest;" vertex="1" parent="s4EFjNfNSJcxo-a09yfP-1">
          <mxGeometry y="440" width="140" height="40" as="geometry" />
        </mxCell>
        <mxCell id="s4EFjNfNSJcxo-a09yfP-47" value="&lt;span&gt;15&lt;/span&gt;" style="shape=partialRectangle;html=1;whiteSpace=wrap;connectable=0;fillColor=none;top=0;left=0;bottom=0;right=0;overflow=hidden;" vertex="1" parent="s4EFjNfNSJcxo-a09yfP-46">
          <mxGeometry width="60" height="40" as="geometry" />
        </mxCell>
        <mxCell id="s4EFjNfNSJcxo-a09yfP-48" value="&amp;nbsp;imul" style="shape=partialRectangle;html=1;whiteSpace=wrap;connectable=0;fillColor=none;top=0;left=0;bottom=0;right=0;overflow=hidden;" vertex="1" parent="s4EFjNfNSJcxo-a09yfP-46">
          <mxGeometry x="60" width="80" height="40" as="geometry" />
        </mxCell>
        <mxCell id="s4EFjNfNSJcxo-a09yfP-50" style="shape=partialRectangle;html=1;whiteSpace=wrap;collapsible=0;dropTarget=0;pointerEvents=0;fillColor=none;top=0;left=0;bottom=0;right=0;points=[[0,0.5],[1,0.5]];portConstraint=eastwest;" vertex="1" parent="s4EFjNfNSJcxo-a09yfP-1">
          <mxGeometry y="480" width="140" height="40" as="geometry" />
        </mxCell>
        <mxCell id="s4EFjNfNSJcxo-a09yfP-51" value="&lt;span&gt;16&lt;/span&gt;" style="shape=partialRectangle;html=1;whiteSpace=wrap;connectable=0;fillColor=none;top=0;left=0;bottom=0;right=0;overflow=hidden;" vertex="1" parent="s4EFjNfNSJcxo-a09yfP-50">
          <mxGeometry width="60" height="40" as="geometry" />
        </mxCell>
        <mxCell id="s4EFjNfNSJcxo-a09yfP-52" value="&amp;nbsp;ireturn" style="shape=partialRectangle;html=1;whiteSpace=wrap;connectable=0;fillColor=none;top=0;left=0;bottom=0;right=0;overflow=hidden;" vertex="1" parent="s4EFjNfNSJcxo-a09yfP-50">
          <mxGeometry x="60" width="80" height="40" as="geometry" />
        </mxCell>
        <mxCell id="s4EFjNfNSJcxo-a09yfP-53" value="0" style="rounded=0;whiteSpace=wrap;html=1;" vertex="1" parent="1">
          <mxGeometry x="369" y="300" width="90" height="40" as="geometry" />
        </mxCell>
        <mxCell id="s4EFjNfNSJcxo-a09yfP-54" value="程序计数器" style="text;html=1;strokeColor=none;fillColor=none;align=center;verticalAlign=middle;whiteSpace=wrap;rounded=0;" vertex="1" parent="1">
          <mxGeometry x="369" y="260" width="96" height="20" as="geometry" />
        </mxCell>
      </root>
    </mxGraphModel>
  </diagram>
</mxfile>
